*******************************************************************************
                             Choking Hazard (2004)
*******************************************************************************

-------------------------------------------------------------------------------
                              General Information
-------------------------------------------------------------------------------
Type.................: Movie



Video Format.........: MKV
Video Bitrate........: 1803
Resolution...........: 720 x 314
Color................: 8 bit
FPS..................: 29.970
Source...............: DVD 2.25:1
Original Format......: NTSC
Genre................: Horror / Comedy
IMDb Rating..........: 5.3
Movie Information....: http://www.imdb.com/title/tt0401320/

-------------------------------------------------------------------------------
                               Post Information
-------------------------------------------------------------------------------
Posted by............: RadioResearch
Posted on............: 3/19/2013

-------------------------------------------------------------------------------
                                 Release Notes
-------------------------------------------------------------------------------
SEEDBOX SUPPORTED!

Czech language with hard-coded English subtitles

A zombie philosopher, a children's TV show star with a shotgun, a nihilistic 
hero, a brain in a plastic bucket and a forest crawling with undead woodsmen.

The Halali motel is an ideal place all year 'round.  Aside from the hotel staff, 
no living creature ever strays this way.

It's the right scenery for Professor Reinis' weekend course for those looking 
for the meaning of life, where the trainees will learn something about 
living...and something about surviving.

From the deep forest, smelling of pine needles, decay and blood, a clan of 
zombie woodsmen emerge, and with their bleeding eyes, they hunt the flesh of the 
living.  With no chance of healt from the outside world, as they are caught in 
the most abandoned and remote place in the Krivoklat region, our heroes must 
face them all alone.

Enjoy!

RadioResearch

General
Unique ID                                : 
199656613298326046329847588548272165426 (0x9634770B32B44F6983192237B5B79232)
Complete name                            : G:Choking Hazard 
(2004)CHOKING_HAZARD.Title11.mkv
Format                                   : Matroska
Format version                           : Version 2
File size                                : 1.06 GiB
Duration                                 : 1h 23mn
Overall bit rate                         : 1 803 Kbps
Movie name                               : CHOKING_HAZARD.Title11.DVDRip
Encoded date                             : UTC 2013-03-19 20:23:16
Writing application                      : DVDFab
Writing library                          : libebml v0.7.8 + libmatroska v0.8.1

Video
ID                                       : 1
Format                                   : AVC
Format/Info                              : Advanced Video Codec
Format profile                           : High@L4.1
Format settings, CABAC                   : Yes
Format settings, ReFrames                : 2 frames
Codec ID                                 : V_MPEG4/ISO/AVC
Duration                                 : 1h 23mn
Bit rate                                 : 1 639 Kbps
Width                                    : 720 pixels
Height                                   : 314 pixels
Display aspect ratio                     : 2.25:1
Frame rate mode                          : Constant
Frame rate                               : 29.970 fps
Color space                              : YUV
Chroma subsampling                       : 4:2:0
Bit depth                                : 8 bits
Scan type                                : Progressive
Bits/(Pixel*Frame)                       : 0.242
Stream size                              : 983 MiB (91%)
Writing library                          : x264 core
Default                                  : Yes
Forced                                   : No
Color primaries                          : BT.601 NTSC
Transfer characteristics                 : BT.709
Matrix coefficients                      : BT.601

Audio
ID                                       : 2
Format                                   : AC-3
Format/Info                              : Audio Coding 3
Mode extension                           : CM (complete main)
Format settings, Endianness              : Big
Codec ID                                 : A_AC3
Duration                                 : 1h 23mn
Bit rate mode                            : Constant
Bit rate                                 : 128 Kbps
Channel(s)                               : 2 channels
Channel positions                        : Front: L R
Sampling rate                            : 48.0 KHz
Bit depth                                : 16 bits
Compression mode                         : Lossy
Stream size                              : 76.7 MiB (7%)
Default                                  : Yes
Forced                                   : No

Menu
00:00:00.000                             : en:(01)00:00:00:000
00:07:56.000                             : en:(02)00:07:56:000
00:20:28.000                             : en:(03)00:20:28:000
00:29:57.000                             : en:(04)00:29:57:000
00:38:44.000                             : en:(05)00:38:44:000
00:49:38.000                             : en:(06)00:49:38:000
00:52:21.000                             : en:(07)00:52:21:000
00:58:34.000                             : en:(08)00:58:34:000
01:02:33.000                             : en:(09)01:02:33:000
01:06:56.000                             : en:(10)01:06:56:000
01:10:24.000                             : en:(11)01:10:24:000
01:19:12.000                             : en:(12)01:19:12:000



-------------------------------------------------------------------------------
Generated with Cool NFO Creator - http://fly.to/coolbeans
-------------------------------------------------------------------------------
